<svg width="300" height="80" viewBox="0 0 300 80" xmlns="http://www.w3.org/2000/svg">
  <defs>
    <linearGradient id="bgGradient" x1="0%" y1="0%" x2="100%" y2="100%">
      <stop offset="0%" style="stop-color:#22C55E;stop-opacity:1" />
      <stop offset="100%" style="stop-color:#059669;stop-opacity:1" />
    </linearGradient>
  </defs>
  
  <!-- Background rounded rectangle -->
  <rect x="5" y="5" width="70" height="70" rx="15" fill="url(#bgGradient)"/>
  
  <!-- Heart icon -->
  <g transform="translate(40, 40)">
    <path d="M-12,-4 C-12,-12 -4,-16 0,-12 C4,-16 12,-12 12,-4 C12,4 0,12 0,12 C0,12 -12,4 -12,-4 Z" 
          fill="#FFFFFF"/>
  </g>
  
  <!-- Small leaf accent -->
  <g transform="translate(55, 25) rotate(30)">
    <path d="M0,-4 C-1,-6 -3,-4 -3,-2 C-3,0 -1,1 0,0 C1,1 3,0 3,-2 C3,-4 1,-6 0,-4 Z" 
          fill="#FEF3C7"/>
  </g>
  
  <!-- Text -->
  <text x="90" y="35" font-family="Arial, sans-serif" font-size="24" font-weight="bold" fill="#1F2937">
    MeuPortalFit
  </text>
  <text x="90" y="55" font-family="Arial, sans-serif" font-size="12" fill="#6B7280">
    Wellness para Brasileiros
  </text>
</svg>
