<svg width="200" height="200" viewBox="0 0 200 200" xmlns="http://www.w3.org/2000/svg">
  <defs>
    <linearGradient id="bgGradient" x1="0%" y1="0%" x2="100%" y2="100%">
      <stop offset="0%" style="stop-color:#22C55E;stop-opacity:1" />
      <stop offset="100%" style="stop-color:#059669;stop-opacity:1" />
    </linearGradient>
  </defs>
  
  <!-- Background circle -->
  <circle cx="100" cy="100" r="95" fill="url(#bgGradient)"/>
  
  <!-- Heart icon (simplified) -->
  <g transform="translate(100, 100)">
    <path d="M-15,-5 C-15,-15 -5,-20 0,-15 C5,-20 15,-15 15,-5 C15,5 0,15 0,15 C0,15 -15,5 -15,-5 Z" 
          fill="#FFFFFF"/>
  </g>
  
  <!-- Small leaf accent -->
  <g transform="translate(125, 75) rotate(30)">
    <path d="M0,-6 C-2,-8 -5,-6 -5,-3 C-5,0 -2,2 0,0 C2,2 5,0 5,-3 C5,-6 2,-8 0,-6 Z" 
          fill="#FEF3C7"/>
  </g>
</svg>
